<svg viewBox="0 0 24 24" fill="none" xmlns="http://www.w3.org/2000/svg">
  <circle cx="12" cy="8" r="5" stroke="currentColor" stroke-width="2"/>
  <circle cx="10" cy="7" r="1" fill="currentColor"/>
  <circle cx="14" cy="7" r="1" fill="currentColor"/>
  <path d="M10 9.5c.5.5 1.5.5 2 0s1.5-.5 2 0" stroke="currentColor" stroke-width="1.5" stroke-linecap="round"/>
  <path d="M7 13c0 2.8 2.2 5 5 5s5-2.2 5-5" stroke="currentColor" stroke-width="2" stroke-linecap="round"/>
  <path d="M5 16l2-1M19 16l-2-1" stroke="currentColor" stroke-width="2" stroke-linecap="round"/>
  <ellipse cx="4" cy="19" rx="2" ry="1" stroke="currentColor" stroke-width="1.5"/>
  <ellipse cx="20" cy="19" rx="2" ry="1" stroke="currentColor" stroke-width="1.5"/>
  <path d="M4 19c0-.5.5-1 1-1h1M20 19c0-.5-.5-1-1-1h-1" stroke="currentColor" stroke-width="1" stroke-linecap="round"/>
</svg>