<svg viewBox="0 0 24 24" fill="none" xmlns="http://www.w3.org/2000/svg">
  <path d="M12 2C8.5 2 6 4.5 6 8c0 1.5.5 2.8 1.3 3.8-.8.7-1.3 1.7-1.3 2.7 0 2 1.6 3.5 3.5 3.5h3c1.9 0 3.5-1.5 3.5-3.5 0-1-.5-2-1.3-2.7.8-1 1.3-2.3 1.3-3.8 0-3.5-2.5-6-6-6z" stroke="currentColor" stroke-width="2" stroke-linecap="round"/>
  <circle cx="9" cy="7" r="1" fill="currentColor"/>
  <circle cx="15" cy="7" r="1" fill="currentColor"/>
  <path d="M8 10h8M9 12h6M10 14h4" stroke="currentColor" stroke-width="1.5" stroke-linecap="round"/>
  <path d="M12 16v2M10 18h4" stroke="currentColor" stroke-width="1.5" stroke-linecap="round"/>
</svg>