<svg viewBox="0 0 24 24" fill="none" xmlns="http://www.w3.org/2000/svg">
  <path d="M21 11.5a8.38 8.38 0 0 1-.9 3.8 8.5 8.5 0 0 1-7.6 4.7 8.38 8.38 0 0 1-3.8-.9L3 21l1.9-5.7a8.38 8.38 0 0 1-.9-3.8 8.5 8.5 0 0 1 4.7-7.6 8.38 8.38 0 0 1 3.8-.9h.5a8.48 8.48 0 0 1 8 8v.5z" stroke="currentColor" stroke-width="2" stroke-linecap="round" stroke-linejoin="round"/>
  <circle cx="9" cy="11" r="1" fill="currentColor"/>
  <circle cx="12" cy="11" r="1" fill="currentColor"/>
  <circle cx="15" cy="11" r="1" fill="currentColor"/>
  <circle cx="20" cy="4" r="3" fill="currentColor"/>
  <path d="M19 3v2M18 4h2" stroke="white" stroke-width="1" stroke-linecap="round"/>
</svg>