<svg viewBox="0 0 24 24" fill="none" xmlns="http://www.w3.org/2000/svg">
  <path d="M3 12h18" stroke="currentColor" stroke-width="2" stroke-linecap="round"/>
  <circle cx="6" cy="12" r="2" stroke="currentColor" stroke-width="2"/>
  <circle cx="12" cy="12" r="2" stroke="currentColor" stroke-width="2"/>
  <circle cx="18" cy="12" r="2" stroke="currentColor" stroke-width="2"/>
  <path d="M6 8V6a2 2 0 0 1 2-2h2" stroke="currentColor" stroke-width="1.5" stroke-linecap="round"/>
  <path d="M12 8V6a2 2 0 0 0-2-2H8" stroke="currentColor" stroke-width="1.5" stroke-linecap="round"/>
  <path d="M18 8V6a2 2 0 0 1 2-2" stroke="currentColor" stroke-width="1.5" stroke-linecap="round"/>
  <path d="M6 16v2a2 2 0 0 0 2 2h2" stroke="currentColor" stroke-width="1.5" stroke-linecap="round"/>
  <path d="M12 16v2a2 2 0 0 1-2 2H8" stroke="currentColor" stroke-width="1.5" stroke-linecap="round"/>
  <path d="M18 16v2a2 2 0 0 0 2 2" stroke="currentColor" stroke-width="1.5" stroke-linecap="round"/>
  <circle cx="6" cy="12" r="1" fill="currentColor"/>
  <circle cx="12" cy="12" r="1" fill="currentColor"/>
  <circle cx="18" cy="12" r="1" fill="currentColor"/>
</svg>