<svg viewBox="0 0 24 24" fill="none" xmlns="http://www.w3.org/2000/svg">
  <rect x="2" y="2" width="4" height="4" rx="1" stroke="currentColor" stroke-width="1.5"/>
  <rect x="8" y="2" width="4" height="4" rx="1" stroke="currentColor" stroke-width="1.5"/>
  <rect x="14" y="2" width="4" height="4" rx="1" stroke="currentColor" stroke-width="1.5"/>
  <rect x="20" y="2" width="2" height="4" rx="1" stroke="currentColor" stroke-width="1.5"/>
  <rect x="2" y="8" width="4" height="4" rx="1" stroke="currentColor" stroke-width="1.5"/>
  <rect x="8" y="8" width="4" height="4" rx="1" stroke="currentColor" stroke-width="1.5"/>
  <rect x="14" y="8" width="4" height="4" rx="1" stroke="currentColor" stroke-width="1.5"/>
  <rect x="20" y="8" width="2" height="4" rx="1" stroke="currentColor" stroke-width="1.5"/>
  <rect x="2" y="14" width="4" height="4" rx="1" stroke="currentColor" stroke-width="1.5"/>
  <rect x="8" y="14" width="4" height="4" rx="1" stroke="currentColor" stroke-width="1.5"/>
  <rect x="14" y="14" width="4" height="4" rx="1" stroke="currentColor" stroke-width="1.5"/>
  <rect x="20" y="14" width="2" height="4" rx="1" stroke="currentColor" stroke-width="1.5"/>
  <rect x="2" y="20" width="4" height="2" rx="1" stroke="currentColor" stroke-width="1.5"/>
  <rect x="8" y="20" width="4" height="2" rx="1" stroke="currentColor" stroke-width="1.5"/>
  <rect x="14" y="20" width="4" height="2" rx="1" stroke="currentColor" stroke-width="1.5"/>
  <rect x="20" y="20" width="2" height="2" rx="1" stroke="currentColor" stroke-width="1.5"/>
</svg>