<svg viewBox="0 0 24 24" fill="none" xmlns="http://www.w3.org/2000/svg">
  <path d="M18 16.5c0 2.5-2 4.5-4.5 4.5S9 19 9 16.5s2-4.5 4.5-4.5" stroke="currentColor" stroke-width="2" stroke-linecap="round"/>
  <path d="M14.5 3C17 3 19 5 19 7.5S17 12 14.5 12" stroke="currentColor" stroke-width="2" stroke-linecap="round"/>
  <path d="M3 7.5C3 5 5 3 7.5 3S12 5 12 7.5" stroke="currentColor" stroke-width="2" stroke-linecap="round"/>
  <circle cx="7.5" cy="7.5" r="2" stroke="currentColor" stroke-width="1.5"/>
  <circle cx="14.5" cy="7.5" r="2" stroke="currentColor" stroke-width="1.5"/>
  <circle cx="13.5" cy="16.5" r="2" stroke="currentColor" stroke-width="1.5"/>
  <path d="M9.5 9.5L11 11M14.5 9.5L13 11M11.5 14.5L13 13" stroke="currentColor" stroke-width="1.5" stroke-linecap="round"/>
</svg>